<?xml version="1.0" encoding="UTF-8"?>
<svg id="Layer_1" data-name="Layer 1" xmlns="http://www.w3.org/2000/svg" viewBox="0 0 364.86 364.86">
  <defs>
    <style>
      .cls-1 {
        fill: #fff;
      }

      .cls-1, .cls-2, .cls-3, .cls-4, .cls-5 {
        stroke-width: 0px;
      }

      .cls-2 {
        fill: #ededee;
      }

      .cls-3 {
        fill: #f1f2f2;
      }

      .cls-4 {
        fill: #3e2b56;
      }

      .cls-5 {
        fill: #d3d5d6;
      }
    </style>
  </defs>
  <circle class="cls-4" cx="182.43" cy="182.43" r="182.43"/>
  <path class="cls-5" d="M93.89,292.28c-12.55-4.53-26.73-10.75-41.63-19.39-7.73-4.48-14.74-9.08-21.07-13.62-4.47-3.16-9.34-6.08-10.79-4.72-2.52,2.36,6.25,16.68,14.09,26.51,10.95,13.73,22.47,28.17,37.31,26.68,2.59-.26,12.59-1.74,22.1-15.46Z"/>
  <path class="cls-1" d="M159.84,59.07c-.79-1.99-.5-4.26-.83-6.38-.22-1.41-.47-3.47-.51-6.06,0,0,0,0,0,0-.02-.07-1.42-5.26,0-8.55.31-.71.83-.96.83-.96.3-.14.58-.13.64-.13.48,0,11.56-2.93,13.4-3,.41-.02.7.1.77.13.12.05.62.27,1.02,1.02.53,1,.42,2.09.38,2.43-.04.37-.35,3.81.64,6.51.58,1.59,1.16,1.69,1.53,3.38.06.26.18.87.13,2.94-.09,3.69-.56,5.58.26,6,.08.04.29.05.7.06.08,0,1.3.04,2.23-.13,2.2-.4,4.08-2.17,4.09-2.17.6,0,1.11,0,1.47,0,1.27.02,1.92.03,2.62.26.56.18.54.28,1.02.45.3.1,2.11.71,2.74,0,.19-.22.16-.43.45-.64.32-.23.69-.2.83-.19,1.19.07,14.36.52,15.89.06.09-.03.49-.16.89,0,.35.14.53.44.57.51,1.52,2.35,3.97,3.95,5.87,6,.2.12.5.32.77.64,1.32,1.56.55,4.12-.06,6.19-.67,2.24-1.45,3.17-1.91,3.64-.92.92-1.61,1.06-1.79,1.09-.78.13-1.18-.63-2.49-.77-.15-.02-.36-.03-.89,0-1.75.09-3.15.44-3.19.45,0,0-2.78.68-19.6.96,0,.15.03.41.13.7.33.98,1.12,1.19,1.4,1.98.19.54.04,1.02-.06,1.4-.82,3.07.23,5.63-1.15,10.34-.72,2.46-1.73,4.22-.89,5.11.05.05.31.26.7.38.68.21,1.1-.08,1.72-.06.69.02,1.06.39,1.6.7,1.74,1.01,4.23.77,6.96.51.2-.02.62-.06,1.15.06.94.23,1.54.83,1.79,1.09,2.48,2.49,3.69,2.63,5.3,5.17.85,1.34,1.41,2.25,1.21,3.38-.2,1.17-1.09,1.97-1.6,2.43-.72.64-1.46.96-2.94,1.6-1.56.67-2.34,1-2.68,1.02-.23.01-.76.02-1.09.38-.22.25-.25.57-.26.7-.21,2.74-.71,4.22,0,6.26.11.33.23.59.26.64.51,1.12,1.15,1.82,1.34,2.04.56.64,1.05,1.64,2.04,3.64.6,1.21,1.09,2.76,1.85,12,.23,2.86.25,3.47.64,4.6.69,2.01,1.34,2.11,3.13,5.36,1.63,2.96,2.01,4.55,2.17,5.68.22,1.53.06,2.47-.13,3.13-.11.37-.47,1.58-1.47,2.62-1.12,1.16-2.28,1.33-4.53,2.04-2.97.94-3.05,1.31-4.85,1.85-6.64,1.99-9.11-1.98-15-.32-.9.25-3.13.99-4.66-.06-.44-.3-.84-.77-1.28-1.28-.87-1.02-1.41-1.95-1.66-2.43-.72-1.36-1.01-2.49-1.53-4.6-.43-1.72-.43-2.16-.89-3.13-.6-1.24-.99-1.3-1.47-2.17-.79-1.43-.16-2.02-.06-7.15.04-2-.05-2.6.19-3.89.11-.59.26-1.17.32-2.11.07-1.09-.02-1.91-.06-2.3-.19-1.72-.26-3.45-.45-5.17-.45-4.08-.67-6.13-.7-7.53-.03-1.64-.32-3.29-.13-4.91.12-1.01.31-1.82-.19-2.49-.59-.78-1.76-.85-2.43-.89-.43-.03-1.51-.08-2.62.57-.39.23-1.4.82-1.72,1.91-.19.64.02.89.45,2.87.4,1.87.29,1.96.64,3.19.35,1.23.54,1.39.83,2.36.47,1.58.49,2.85.51,3.77.07,2.94.37,5.87.45,8.81.14,5.29.51,7.26.57,13.98.03,3.55-.05,5.11-1.21,6.19-1.04.97-2.08.76-6.38.89-5.01.16-7.03.57-11.04.19-1.31-.12-2.87-.33-4.47-1.28-.92-.54-1.7-1.24-2.17-1.66-.69-.61-1.62-1.44-2.11-2.23-1.15-1.87-.34-4.35,0-5.49.05-.17.42-4.07,1.15-11.87.86-9.12,1.28-13.68,1.09-15.26-.04-.31-.27-2.09.45-4.09.2-.56.94-2.61,2.55-3.06.69-.19,1.4-.07,1.4,0,0,.12-2.31.61-4.72.06-.91-.21-1.41-.33-1.85-.77-.78-.77-.38-1.51-.83-3.89-.36-1.91-.55-2.9-1.15-4.15-.31-.65-.57-1.02-.45-1.53.12-.53.56-.82,2.17-1.79,2.02-1.22,2-1.16,2.17-1.34,1.15-1.2,6.47-2.02,9.19-2.04.73,0,1.1-.03,1.21-.26.25-.53-1.35-1.33-1.85-3.06-.16-.56-.12-.91,0-2.23.56-6.13.26-5.33.51-6.38.27-1.16.63-2.14.26-3.38-.14-.46-.28-.93-.64-1.21-1.18-.95-3.28,1.22-6.7,2.11-4.2,1.09-4.94-1.15-10.4-.57-.66.07-2.04.25-3-.57-.72-.62-.89-1.53-1.02-2.3-.29-1.66.14-2.58.38-4.47.34-2.68-.26-2.9.06-4.02.94-3.25,6.85-4.31,15.57-5.87,1.63-.29,3.96-.71,6.19-.77.63-.02,1.79-.02,3.26-.13,1.25-.1,1.29-.16,1.85-.13.66.04,1.07.17,1.28-.06.26-.29,0-.92-.06-1.09Z"/>
  <path class="cls-1" d="M38.14,126.86c-.64.63,1.53,2.91,1.53,6.47,0,0,0,0,0,0,0,.02,1.51,3.83,9.45,13.11-1.38.49-2.19,1.21-2.64,1.7-.29.32-.98,1.08-.77,1.49.16.29.71.28,1.32.26.95-.04,2.21-.1,3.7-.21.1.14.24.37.3.68.16.92-.59,1.66-.64,1.7-.31.29-.74.49-2.98.55-2.05.06-2.61-.09-3.11.38-.65.61-.52,1.62-.51,1.7.12.9.84,1.58,1.02,1.49.21-.1-.32-1.15.13-1.57.21-.2.56-.18.85-.13,2.54-1.27,4.92-.99,5.62.13.58.92.04,2.45-.17,3.06-.2.59-.47,1.31-1.19,1.87-.69.54-1.42.65-1.79.68-.26-.26-.58-.65-.77-1.19-.21-.62-.14-1.09-.26-1.11-.15-.02-.48.72-.55,1.53-.04.49-.15,1.65.68,2.51.72.75,1.68.8,1.91.81,1.58.06,2.58-1.22,2.68-1.36.06-.34.11-.68.17-1.02.1.21.26.53.43.94.76,1.82.71,2.66,1.32,4.6.54,1.73.73,1.54.81,2.34.02.19.21,2.56-1.15,3.53-1.37.99-3.44-.09-3.57.3-.1.29,1.03,1.09,2.3,1.36.97.21,1.81.05,2.3-.09.58-.34,1.16-.68,1.74-1.02.16-.84.36-1.76.51-1.74.16.01.21,1,.26,2.3.1,2.81.15,4.21.13,5.32-.04,1.91,1.19,5.12,6.72,10.85-.55-1.49-1.09-3.11-1.57-4.85-.79-2.83-1.32-5.48-1.66-7.87.14-4.42.38-9.48.77-9.49.24,0,.43,2.02.64,3.62,0,0,.98,7.36,4.04,13.91,5,10.72,15.07,15.97,17.45,16.38.24.04,2.26.35,4.89,1.06.3.08.69.31.77.21.22-.3-3.33-2.37-5.06-5.4-.91-1.58-1.73-4.15-.98-8.3.07-1.45-.03-3.41-.81-5.53-.75-2.03-1.89-3.58-1.83-3.62.07-.04,1.3,1.65,2.17,3.02,3.74,5.87,3.1,9.21,5.19,13.36,3.67,7.28,12.34,10.31,13.32,10.64,3.11,1.04,7.92,1.69,11.11,3.87.14.09.62.43.77.3.66-.57-5.85-9.31-6.81-10.6-.2-.27-.32-.99-.6-.81-.05.04,2.78,5.37,7.62,9.96,0,0,2.77,2.62,7.83,4.34.46.15.97.31,1.11.13.48-.66-4.85-4.49-8.89-9.49-1.96-2.42-4.44-6.13-6.34-11.53,2.95,5.6,6.1,9.74,8.47,12.51,4.22,4.93,8.34,9.63,15.06,12,.88.31,2.62.87,8.55,1.45,12.39,1.21,19.04.18,39.06.17.17,0,.36,0,.51,0,.2-.04,2.2-.51,2.98-2.38.64-1.55,0-2.98-.17-3.36-.47-1.05-1.22-1.65-1.45-1.83-4.81-3.9-8.91-11.51-20.72-17.62-3.36-1.74-8.46-3.93-15.19-5.23-3.42-.46-8.87-1.49-15.02-4.17-8.51-3.71-9.62-6.77-17.83-10.09-9.3-3.75-17.94-3.89-17.87-4.43.01-.1.31-.18,5.91-.38,3.74-.13,4.43-.13,4.51-.43.22-.8-4.37-2.14-10.85-5.87-3.74-2.16-3.51-2.46-6.98-4.3-2.93-1.56-5.64-2.97-9.36-3.83-3.71-.86-6.73-.77-6.72-1.02,0-.19,1.77-.39,3.36-.38,1.73.01,2.57.26,2.68,0,.17-.4-1.4-1.69-3.15-2.51-4.88-2.29-10.15-.46-10.3-1.15-.05-.26.64-.69,1.19-.85.56-.17.9-.04,1.49,0,1.33.09,2.8-.33,3.57-1.23.08-.1.55-.64.38-.94-.16-.29-.81-.18-1.28-.17-1.24.02-1.57-.68-3.23-1.45-2.72-1.25-5.47-1.07-6.27-1.01,0,0-.4.08-.41.03-.01-.05.92-.14,1.57-.72.46-.41.91-1.19.68-1.53-.51-.79-4.37.9-4.55.47-.05-.11.19-.23.38-.72.06-.16.3-.79.13-.98-.4-.44-2.48,1.9-4.26,1.36-.77-.23-1.23-.93-1.89-1.91-.82-1.22-1.12-2.34-1.17-2.51-1.49-5.2-7.15-9.3-8.13-9.83-.24-.13-.4-.15-1.09-.49-.52-.26-.86-.46-1.23-.34-.04.01-.18.06-.28.15Z"/>
  <path class="cls-1" d="M270.48,192.73c-1.26,2.75-3.3,6.53-6.55,10.47-5.32,6.43-11.02,9.83-13.62,11.23-4.5,2.43-8.65,4.66-14.38,4.43-1.96-.08-6.32-.32-10.21-3.32-2.83-2.18-4.36-5.01-5.11-6.38-.51-.94-1.34-2.62-1.96-4.85-.69-2.48-1.8-6.45-.43-10.81,1.39-4.4,4.55-6.97,6.04-8,2.92-2.02,5.83-2.52,8.72-3.02,1.57-.27,3.67-.5,6.13-.41,3.06.12,5.62.69,11.09,2.53,12.1,4.06,18.15,6.09,20.09,7.84.41.37,1.94,1.86,3.49,1.49.31-.07.52-.2.63-.26,4.23-2.48,5.57-2.84,5.59-3.7.02-.83-1.22-1.42-4.4-2.87-4.59-2.09-6.88-3.13-8.12-3.64-5.73-2.33-5.15-2.38-9.57-4.13-4.21-1.66-6.53-2.57-9.66-3.36-3.25-.82-8.42-2.06-14.89-1.36-3.39.37-7.66.83-12.17,3.66-7.3,4.58-9.69,11.88-10.21,13.62-2.13,7.12-.35,13.04.43,15.49.66,2.1,2.96,9.03,9.87,13.96,1.67,1.19,4.53,2.92,8.43,3.91,6.91,1.76,12.62.05,15.49-.85,4.56-1.43,7.59-3.5,11.06-5.87,4.57-3.12,7.61-6.16,9.02-7.66,4.05-4.29,7.06-8.9,6.72-9.19-.13-.11-1.08.63-2.98,2.13-1.55,1.22-2.08,1.73-2.21,1.62-.24-.2,1.03-2.15,2.38-4.17,1.96-2.93,4.12-6.01,4.59-6.68.02-.03.08-.12.16-.22.02-.03.08-.11.1-.15.07-.1.25-.35.38-.53"/>
  <path class="cls-1" d="M280.35,187.8c1.51-2.37,3.65-5.46,6.47-8.85,2.95-3.55,7.2-8.09,13.02-12.68,6.16-4.86,9.25-7.3,13.62-8.34,2.02-.48,8.99-2.15,15.49,1.79,6.25,3.79,8.05,10.32,8.94,13.53,1.89,6.85.47,12.51-.09,14.64-.63,2.41-2.07,7.61-6.72,12.34-5.47,5.56-11.92,6.94-14.21,7.32-4.03.66-8.71-.8-18.04-3.57-3.7-1.1-9.83-3.13-17.19-6.47-3.44-1.56-6.28-3.01-8.32-4.11.12-1.52.55-5.74,2.19-6.09.58-.12,1.02.3,4.91,2.26.36.18.66.33.84.42.07.05.16.11.28.19,0,0,1.38.94,2.82,1.78,2.98,1.73,6.81,3.23,6.81,3.23,6.87,2.7,10.3,4.04,13.19,4.68,4.06.9,6.85,1.51,10.64,1.02,1.88-.24,6.4-.89,10.72-4.34,1.47-1.18,4.78-4.15,6.47-9.11,1.17-3.42,1.07-6.32.98-8.3-.07-1.63-.21-4.31-1.49-7.45-.55-1.35-1.25-3.02-2.81-4.74-2.09-2.3-4.43-3.26-5.7-3.77-.27-.11-2.52-.98-5.06-1.15-1.56-.1-2.98.08-4.39.46-2.27.62-4.47,1.79-7.06,3.16-2.82,1.49-5.21,3.2-6.19,3.91-1.04.75-1.89,1.41-2.49,1.9-2.16,1.7-5.15,4.22-8.09,7.35-1.95,2.08-3.26,3.76-4.19,4.96-.86,1.11-1.35,1.81-1.83,2.62-.89,1.48-1.45,2.81-1.81,3.77-.23.33-.55.7-.98,1.04-1.52,1.19-3.34,1.08-3.91,1.02"/>
  <path class="cls-3" d="M157.11,315.34c.84-11.58,13.47-18.41,14.31-18.86,3.72-1.95,6.18-2.13,21.93-2.89,22.38-1.08,24.97-1.09,30.84-1.83,10.79-1.37,16.19-2.06,22.87-4.72,10.04-3.99,13.08-8.16,26.99-13.89,2.62-1.08,2.5-.93,11.82-4.19,15.35-5.38,31.19-9.32,46.26-15.46,4.79-1.95,8.73-3.72,10.28-2.1,1.72,1.8-.37,6.84-5.14,15.46-11.56,20.87-23.53,35.04-24.93,36.68-4.89,5.73-11.65,13.22-20.27,21.54-7.21,1.84-17.99,4.53-31.13,7.54-65.67,15.04-79.61,12.77-89.69,5.76-1.96-1.36-15.03-10.73-14.14-23.06Z"/>
  <path class="cls-2" d="M29.12,272.37c4.22-.66,10.57-1.53,18.3-2.1,7.69-.56,40.4-2.55,96.22,12.84,18.54,5.11,43.21,13.13,71.38,25.94,26.49,3.23,52.99,6.46,79.48,9.69,1.33-.13,2.86-.13,3.14.52,1.24,2.92-23.59,15.98-25.1,16.77-14.09,7.37-31.57,16.51-57,21.22-8.33,1.55-24.9,3.98-45.76,2.36-42.22-3.29-72.36-20.94-83.41-28.04-27.44-17.62-44.12-38.9-53.08-52.4"/>
</svg>